<?xml version="1.0" standalone="no"?>
<!DOCTYPE svg PUBLIC "-//W3C//DTD SVG 20010904//EN"
 "http://www.w3.org/TR/2001/REC-SVG-20010904/DTD/svg10.dtd">
<svg version="1.0" xmlns="http://www.w3.org/2000/svg"
 width="262.000000pt" height="262.000000pt" viewBox="0 0 262.000000 262.000000"
 preserveAspectRatio="xMidYMid meet">
<metadata>
Created by potrace 1.11, written by Peter Selinger 2001-2013
</metadata>
<g transform="translate(0.000000,262.000000) scale(0.100000,-0.100000)"
fill="#000000" stroke="none">
<path d="M1160 2463 c-276 -37 -527 -159 -720 -353 -178 -177 -286 -384 -325
-620 -15 -95 -17 -275 -4 -347 5 -27 11 -58 14 -71 20 -113 88 -270 168 -390
183 -274 495 -472 812 -517 22 -3 51 -8 64 -11 31 -7 257 -6 296 1 17 3 46 8
65 11 19 3 46 8 60 11 51 9 201 63 271 98 134 66 258 159 360 270 58 63 139
175 139 192 0 7 4 13 9 13 4 0 21 28 36 63 14 34 33 77 42 95 8 18 26 77 40
130 28 108 39 322 23 422 -5 30 -12 69 -14 85 -3 17 -15 59 -26 95 -109 339
-361 606 -696 741 -100 40 -141 51 -279 74 -71 12 -268 16 -335 8z"/>
</g>
</svg>
